<?xml version="1.0" encoding="utf-8"?>
<!-- Generator: Adobe Illustrator 24.0.0, SVG Export Plug-In . SVG Version: 6.00 Build 0)  -->
<svg version="1.1" id="Layer_1" xmlns="http://www.w3.org/2000/svg" xmlns:xlink="http://www.w3.org/1999/xlink" x="0px" y="0px"
	 viewBox="0 0 256 256" enable-background="new 0 0 256 256" xml:space="preserve">
<g>
	<g>
		<path fill="#CECECE" d="M155.409,141.913h-54.818c-26.704,0-48.353,21.648-48.353,48.353v42.145h151.523v-42.145
			C203.761,163.561,182.113,141.913,155.409,141.913z"/>
		<g>
			<path fill="#AFAFAF" d="M115.258,141.913h-14.667c-26.704,0-48.353,21.648-48.353,48.353v42.145h14.667v-42.145
				C66.905,163.561,88.553,141.913,115.258,141.913z"/>
		</g>
		<path fill="#F8AF23" d="M130.291,154.84h-4.581c-8.146,0-14.75-6.604-14.75-14.75v-26.243c0-8.146,6.604-14.75,14.75-14.75h4.581
			c8.146,0,14.75,6.604,14.75,14.75v26.243C145.041,148.236,138.437,154.84,130.291,154.84z"/>
		<path fill="#F87023" d="M110.959,113.847v26.243c0,6.866,4.698,12.619,11.05,14.263v-54.77
			C115.658,101.227,110.959,106.981,110.959,113.847z"/>
		<path fill="#CECECE" d="M170.193,123.866H85.807c-11.046,0-20-8.954-20-20V50.672c0-11.046,8.954-20,20-20h84.387
			c11.046,0,20,8.954,20,20v53.194C190.193,114.911,181.239,123.866,170.193,123.866z"/>
		<g>
			<path fill="#AFAFAF" d="M80.473,103.866V50.672c0-11.046,8.954-20,20-20H85.807c-11.046,0-20,8.954-20,20v53.194
				c0,11.046,8.954,20,20,20h14.667C89.428,123.866,80.473,114.911,80.473,103.866z"/>
		</g>
		<path fill="#AFAFAF" d="M60.67,96.139h5.136v-37.74H60.67c-6.681,0-12.097,5.416-12.097,12.097v13.546
			C48.574,90.723,53.989,96.139,60.67,96.139z"/>
		<path fill="#E2E2E2" d="M195.33,96.139h-5.136v-37.74h5.136c6.681,0,12.097,5.416,12.097,12.097v13.546
			C207.426,90.723,202.011,96.139,195.33,96.139z"/>
		<path fill="#F46275" d="M151.638,86.266h-47.275c-8.054,0-14.583-6.529-14.583-14.583v-4.529c0-8.054,6.529-14.583,14.583-14.583
			h47.275c8.054,0,14.583,6.529,14.583,14.583v4.529C166.221,79.737,159.692,86.266,151.638,86.266z"/>
		<g>
			<circle fill="#3F3679" cx="111.701" cy="69.418" r="5.249"/>
			<circle fill="#3F3679" cx="144.299" cy="69.418" r="5.249"/>
		</g>
		<path fill="#707070" d="M149.668,110.527h-43.336c-2.761,0-5-2.239-5-5v-3.478c0-2.761,2.239-5,5-5h43.336c2.761,0,5,2.239,5,5
			v3.478C154.668,108.289,152.429,110.527,149.668,110.527z"/>
		<path fill="#63BCE7" d="M131.452,12.616h-6.903c-13.355,0-25.79,6.806-32.988,18.056l0,0h72.88l0,0
			C157.242,19.422,144.807,12.616,131.452,12.616z"/>
		<g>
			<path fill="#6377E7" d="M135.333,12.828c-1.284-0.128-2.576-0.212-3.882-0.212h-6.903c-13.355,0-25.79,6.806-32.988,18.056
				h14.667C112.721,20.522,123.483,14.008,135.333,12.828z"/>
		</g>
		<g>
			<circle fill="#3F3679" cx="48.574" cy="35.626" r="6.354"/>
			<circle fill="#3F3679" cx="207.426" cy="35.626" r="6.354"/>
		</g>
	</g>
	<path fill="#707070" d="M177.029,222.815H78.97c-3.395,0-6.147-2.752-6.147-6.148v-54.994c0-3.395,2.752-6.147,6.147-6.147h98.059
		c3.395,0,6.148,2.752,6.148,6.147v54.994C183.177,220.063,180.425,222.815,177.029,222.815z"/>
	<path fill="#707070" d="M188.288,232.411H67.712l-5.024-6.003c-1.192-1.424-0.179-3.592,1.678-3.592h127.268
		c1.857,0,2.87,2.168,1.678,3.592L188.288,232.411z"/>
	<circle fill="#CECECE" cx="128" cy="189.171" r="5.476"/>
	<polygon fill="#63BCE7" points="210.531,134.574 210.531,180.567 197.257,180.567 183.177,194.647 169.097,180.567 
		155.823,180.567 155.823,134.574 	"/>
	<g>
		<polygon fill="#63E2E7" points="210.531,134.574 210.531,180.567 197.257,180.567 195.865,181.959 195.865,134.574 		"/>
	</g>
	<circle fill="#F8AF23" cx="198.342" cy="157.57" r="4.827"/>
	<circle fill="#F8AF23" cx="183.022" cy="157.57" r="4.827"/>
	<circle fill="#F8AF23" cx="167.703" cy="157.57" r="4.827"/>
	<g>
		<path fill="#3F3679" d="M27.323,241.884H9.32c-0.829,0-1.5,0.671-1.5,1.5s0.671,1.5,1.5,1.5h18.003c0.829,0,1.5-0.671,1.5-1.5
			S28.152,241.884,27.323,241.884z"/>
		<path fill="#3F3679" d="M246.68,241.884h-18.003c-0.829,0-1.5,0.671-1.5,1.5s0.671,1.5,1.5,1.5h18.003c0.829,0,1.5-0.671,1.5-1.5
			S247.509,241.884,246.68,241.884z"/>
		<path fill="#3F3679" d="M218.479,241.884H37.521c-0.829,0-1.5,0.671-1.5,1.5s0.671,1.5,1.5,1.5h180.959c0.829,0,1.5-0.671,1.5-1.5
			S219.308,241.884,218.479,241.884z"/>
		<path fill="#3F3679" d="M9.32,233.911h42.918h15.474h120.575h15.474h42.918c0.829,0,1.5-0.671,1.5-1.5s-0.671-1.5-1.5-1.5h-41.418
			v-40.645c0-2.749-0.237-5.502-0.683-8.199h5.953c0.829,0,1.5-0.671,1.5-1.5v-45.993c0-0.829-0.671-1.5-1.5-1.5h-54.709
			c-0.829,0-1.5,0.671-1.5,1.5v5.839h-7.798c0.002-0.109,0.016-0.214,0.016-0.323v-14.724h23.653c11.855,0,21.5-9.645,21.5-21.5
			v-6.227h3.636c7.497,0,13.597-6.1,13.597-13.597V70.496c0-7.497-6.1-13.597-13.597-13.597h-2.12l15.413-20.368
			c0.5-0.661,0.37-1.602-0.291-2.102c-0.66-0.499-1.601-0.369-2.102,0.291l-14.537,19.21v-3.259c0-11.855-9.645-21.5-21.5-21.5
			h-4.963c-7.568-11.315-20.123-18.056-33.778-18.056h-6.903c-13.655,0-26.211,6.741-33.778,18.056h-4.963
			c-11.855,0-21.5,9.645-21.5,21.5v3.259L49.77,34.721c-0.5-0.661-1.441-0.79-2.102-0.291c-0.661,0.5-0.791,1.441-0.291,2.102
			L62.79,56.899h-2.12c-7.497,0-13.597,6.1-13.597,13.597v13.546c0,7.497,6.1,13.597,13.597,13.597h3.636v6.227
			c0,11.855,9.645,21.5,21.5,21.5h23.653v14.724c0,0.109,0.014,0.215,0.016,0.323h-8.885c-27.489,0-49.853,22.364-49.853,49.853
			v40.645H9.32c-0.829,0-1.5,0.671-1.5,1.5S8.491,233.911,9.32,233.911z M68.413,230.911l-4.575-5.466
			c-0.254-0.303-0.151-0.614-0.096-0.733c0.056-0.12,0.228-0.397,0.624-0.397h14.604h98.059h14.604c0.396,0,0.568,0.277,0.624,0.397
			c0.056,0.119,0.158,0.43-0.096,0.732l-4.575,5.466H68.413z M74.323,216.667v-54.994c0-2.563,2.085-4.647,4.648-4.647h75.352
			v23.541c0,0.829,0.671,1.5,1.5,1.5h12.653l13.202,13.201v21.399c0,2.563-2.085,4.647-4.648,4.647H78.971
			C76.408,221.315,74.323,219.23,74.323,216.667z M202.262,190.266v40.645h-10.763l2.963-3.541c0.929-1.11,1.126-2.615,0.513-3.927
			c-0.613-1.313-1.894-2.127-3.342-2.127h-8.545c0.992-1.29,1.588-2.898,1.588-4.647v-21.399l13.201-13.201h3.663
			C202.017,184.757,202.262,187.514,202.262,190.266z M157.322,136.074h51.709v42.993h-11.774c-0.398,0-0.779,0.158-1.061,0.439
			l-13.02,13.02l-13.02-13.02c-0.281-0.281-0.663-0.439-1.061-0.439h-11.774V136.074z M154.322,143.413v10.613h-15.718
			c3.831-2.294,6.652-6.107,7.592-10.613H154.322z M205.926,70.496v13.546c0,5.843-4.753,10.597-10.597,10.597h-3.636v-34.74h3.636
			C201.173,59.899,205.926,64.652,205.926,70.496z M124.548,14.116h6.903c11.966,0,23.032,5.579,30.125,15.056H94.423
			C101.517,19.695,112.582,14.116,124.548,14.116z M60.67,94.639c-5.843,0-10.597-4.753-10.597-10.597V70.496
			c0-5.843,4.753-10.597,10.597-10.597h3.636v34.74H60.67z M67.307,103.866v-7.727v-37.74v-7.727c0-10.201,8.299-18.5,18.5-18.5
			h5.753h72.88h5.753c10.201,0,18.5,8.299,18.5,18.5v7.727v37.74v7.727c0,10.201-8.299,18.5-18.5,18.5H85.807
			C75.605,122.366,67.307,114.067,67.307,103.866z M143.541,125.366v14.724c0,7.306-5.944,13.25-13.25,13.25h-4.581
			c-7.306,0-13.25-5.944-13.25-13.25v-14.724H143.541z M53.738,190.266c0-25.834,21.018-46.853,46.853-46.853h9.212
			c0.94,4.506,3.761,8.319,7.592,10.613H78.971c-4.217,0-7.648,3.431-7.648,7.647v54.994c0,1.749,0.597,3.358,1.588,4.647h-8.545
			c-1.448,0-2.729,0.815-3.342,2.127c-0.613,1.312-0.416,2.817,0.513,3.928l2.963,3.541H53.738V190.266z"/>
		<path fill="#3F3679" d="M151.638,51.07h-47.275c-8.869,0-16.083,7.215-16.083,16.083v4.53c0,8.868,7.215,16.083,16.083,16.083
			h47.275c8.869,0,16.083-7.215,16.083-16.083v-4.53C167.721,58.285,160.506,51.07,151.638,51.07z M164.721,71.683
			c0,7.214-5.869,13.083-13.083,13.083h-47.275c-7.214,0-13.083-5.869-13.083-13.083v-4.53c0-7.214,5.869-13.083,13.083-13.083
			h47.275c7.214,0,13.083,5.869,13.083,13.083V71.683z"/>
		<path fill="#3F3679" d="M149.668,95.549h-43.336c-3.584,0-6.5,2.916-6.5,6.5v3.479c0,3.584,2.916,6.5,6.5,6.5h43.336
			c3.584,0,6.5-2.916,6.5-6.5v-3.479C156.168,98.465,153.252,95.549,149.668,95.549z M153.168,105.527c0,1.93-1.57,3.5-3.5,3.5
			h-11.696v-4.758c0-0.829-0.671-1.5-1.5-1.5s-1.5,0.671-1.5,1.5v4.758h-13.944v-4.758c0-0.829-0.671-1.5-1.5-1.5
			s-1.5,0.671-1.5,1.5v4.758h-11.696c-1.93,0-3.5-1.57-3.5-3.5v-3.479c0-1.93,1.57-3.5,3.5-3.5h3.705v4.469
			c0,0.829,0.671,1.5,1.5,1.5s1.5-0.671,1.5-1.5v-4.469H126.5v4.469c0,0.829,0.671,1.5,1.5,1.5s1.5-0.671,1.5-1.5v-4.469h13.463
			v4.469c0,0.829,0.671,1.5,1.5,1.5s1.5-0.671,1.5-1.5v-4.469h3.705c1.93,0,3.5,1.57,3.5,3.5V105.527z"/>
		<path fill="#3F3679" d="M128,182.194c-3.847,0-6.977,3.13-6.977,6.977s3.13,6.976,6.977,6.976s6.977-3.129,6.977-6.976
			S131.847,182.194,128,182.194z M128,193.147c-2.193,0-3.977-1.784-3.977-3.976c0-2.193,1.784-3.977,3.977-3.977
			s3.977,1.784,3.977,3.977C131.977,191.363,130.193,193.147,128,193.147z"/>
		<path fill="#3F3679" d="M198.342,163.898c3.489,0,6.327-2.838,6.327-6.328c0-3.489-2.838-6.327-6.327-6.327
			s-6.327,2.838-6.327,6.327C192.015,161.06,194.854,163.898,198.342,163.898z M198.342,154.243c1.834,0,3.327,1.493,3.327,3.327
			c0,1.835-1.493,3.328-3.327,3.328s-3.327-1.493-3.327-3.328C195.015,155.736,196.508,154.243,198.342,154.243z"/>
		<path fill="#3F3679" d="M183.022,163.898c3.489,0,6.327-2.838,6.327-6.328c0-3.489-2.838-6.327-6.327-6.327
			s-6.327,2.838-6.327,6.327C176.695,161.06,179.534,163.898,183.022,163.898z M183.022,154.243c1.834,0,3.327,1.493,3.327,3.327
			c0,1.835-1.493,3.328-3.327,3.328s-3.327-1.493-3.327-3.328C179.695,155.736,181.188,154.243,183.022,154.243z"/>
		<path fill="#3F3679" d="M174.03,157.57c0-3.489-2.838-6.327-6.327-6.327s-6.327,2.838-6.327,6.327
			c0,3.489,2.838,6.328,6.327,6.328S174.03,161.06,174.03,157.57z M167.703,160.898c-1.834,0-3.327-1.493-3.327-3.328
			c0-1.834,1.493-3.327,3.327-3.327s3.327,1.493,3.327,3.327C171.03,159.405,169.537,160.898,167.703,160.898z"/>
	</g>
</g>
</svg>
